# Blender v2.90.1 OBJ File: 'closet.blend'
# www.blender.org
mtllib kBücherregal1.mtl
v 0.638925 4.448586 29.085138
v 0.638925 -0.000106 28.994446
v 0.638925 4.229733 29.085138
v 0.638925 3.128880 29.117365
v 0.638925 2.024796 29.141119
v 0.638925 0.220171 28.994446
v -0.638925 3.128880 29.117365
v -0.638925 2.024796 29.141119
v -0.638925 0.220171 28.994446
v -0.638925 -0.000106 29.272516
v -0.638925 -0.000106 30.671215
v -0.638925 -0.000106 30.968336
v 0.638925 4.448586 31.059031
v -0.638925 4.448586 31.059031
v -0.638925 4.448586 30.761908
v -0.638925 4.448586 29.363211
v 0.638925 0.220171 30.968336
v 0.638925 2.024796 29.419189
v 0.638925 2.024796 30.817888
v 0.638925 2.024796 31.115009
v 0.638925 3.128880 29.395435
v 0.638925 3.128880 30.794134
v 0.638925 3.128880 31.091255
v 0.638925 4.229733 29.363211
v 0.638925 4.229733 30.761908
v -0.638925 0.220171 30.968336
v -0.638925 0.220171 30.671215
v -0.638925 0.220171 29.272516
v -0.638925 2.024796 31.115009
v -0.638925 2.024796 30.817888
v -0.638925 2.024796 29.419189
v -0.638925 3.128880 31.091255
v -0.638925 3.128880 30.794134
v -0.638925 3.128880 29.395435
v -0.638925 4.229733 31.059031
v -0.638925 4.229733 30.761908
v -0.638925 4.229733 29.363211
v 0.638925 4.116033 29.085138
v -0.638925 4.116033 29.085138
v -0.638925 4.116033 31.059031
v -0.638925 4.116033 30.761908
v -0.638925 4.116033 29.363211
v 0.638925 4.116033 29.363211
v 0.638925 4.116033 30.761908
v 0.638925 4.116033 31.059031
v 0.638925 0.330883 28.994801
v -0.638925 0.330883 28.994801
v -0.638925 0.330884 30.968700
v -0.589265 0.431578 30.581654
v -0.589265 0.431585 29.365715
v 0.638925 0.330883 29.272871
v 0.638925 0.330883 30.671570
v 0.638925 0.330884 30.968700
v -0.638925 4.448586 29.162998
v -0.638925 0.220171 29.072306
v -0.638925 2.024796 29.218979
v -0.638925 3.128880 29.195225
v -0.638925 4.229733 29.162998
v -0.638925 -0.000106 29.072306
v 0.638925 4.448586 29.162998
v 0.638925 0.220171 29.072306
v 0.638925 2.024796 29.218979
v 0.638925 3.128880 29.195225
v 0.638925 4.116033 29.162998
v -0.638925 4.116033 29.162998
v 0.638925 0.330884 29.072670
v -0.638925 0.330884 29.072670
v -0.638925 4.448586 29.085138
v -0.638925 -0.000106 28.994446
v -0.638925 4.229733 29.085138
v 0.638925 4.448586 29.363211
v 0.638925 4.448586 30.761908
v 0.638925 -0.000106 30.968336
v 0.638925 -0.000106 30.671215
v 0.638925 -0.000106 29.272516
v 0.638925 0.220171 29.272516
v 0.638925 0.220171 30.671215
v 0.638925 4.229733 31.059031
v 0.638925 -0.000106 29.072306
v 0.638925 4.229733 29.162998
v 0.638925 0.923325 29.055737
v -0.638925 0.923325 29.055737
v -0.638925 0.923325 31.029627
v -0.638925 0.923325 30.732506
v -0.638925 0.923325 29.333807
v 0.638925 0.923325 29.333807
v 0.638925 0.923325 30.732506
v 0.638925 0.923325 31.029627
v 0.638925 0.923327 29.133635
v -0.638925 0.923327 29.133635
v -0.638925 -0.000106 30.868408
v -0.638925 4.448586 30.959103
v 0.638925 2.024796 31.015081
v 0.638925 3.128880 30.991327
v -0.638925 0.220171 30.868408
v -0.638925 2.024796 31.015081
v -0.638925 3.128880 30.991327
v -0.638925 4.229733 30.959103
v 0.638925 4.116033 30.959103
v -0.638925 4.116033 30.959103
v 0.638925 0.330883 30.868763
v -0.638925 0.330883 30.868763
v 0.638925 -0.000106 30.868408
v 0.638925 4.448586 30.959103
v 0.638925 0.220171 30.868408
v 0.638925 4.229733 30.959103
v 0.638925 0.923325 30.929699
v -0.638925 0.923325 30.929699
v 0.638925 3.013187 29.123335
v -0.638925 3.013187 29.123335
v -0.638925 3.013187 31.097227
v -0.638925 3.013187 30.800106
v -0.638925 3.013187 29.401407
v 0.638925 3.013187 29.401407
v 0.638925 3.013187 30.800106
v 0.638925 3.013187 31.097227
v 0.638925 3.013187 29.201195
v -0.638925 3.013187 29.201195
v 0.638925 3.013187 30.997299
v -0.638925 3.013187 30.997299
v 0.638925 1.917247 29.137606
v -0.638925 1.917247 29.137606
v -0.638925 1.917247 31.111496
v -0.638925 1.917247 30.814375
v -0.638925 1.917247 29.415676
v 0.638925 1.917247 29.415676
v 0.638925 1.917247 30.814375
v 0.638925 1.917247 31.111496
v 0.638925 1.917247 29.215466
v -0.638925 1.917247 29.215466
v 0.638925 1.917247 31.011568
v -0.638925 1.917247 31.011568
v 0.638925 0.804095 29.045048
v -0.638925 0.804095 29.045048
v -0.638925 0.804096 31.018953
v -0.589265 0.702803 30.621368
v -0.589265 0.702828 29.405741
v 0.638925 0.804095 29.323120
v 0.638925 0.804095 30.721817
v 0.638925 0.804096 31.018953
v 0.638925 0.804098 29.122959
v -0.638925 0.804098 29.122959
v -0.638925 0.804095 30.919012
v 0.638925 0.804095 30.919012
v 0.395235 2.024736 30.815870
v 0.395235 2.024736 29.417171
v 0.395235 3.128800 30.792776
v 0.395235 3.128800 29.394079
v 0.395235 4.116033 30.761908
v 0.395235 4.116033 29.363211
v 0.395235 3.013098 30.798586
v 0.395235 3.013098 29.399887
v 0.395235 1.917199 30.812443
v 0.395235 0.923455 30.732533
v 0.395235 1.917199 29.413744
v 0.395235 0.923455 29.333836
v -0.638925 0.804095 30.721817
v -0.638925 0.330883 30.671570
v -0.638925 0.804095 29.323120
v -0.638925 0.330883 29.272871
v -0.724383 0.220171 28.908987
v 0.724383 0.220171 28.908987
v -0.759780 0.220171 29.072306
v -0.759780 -0.000106 29.072306
v -0.759780 -0.000106 29.272516
v -0.759780 -0.000106 30.671215
v -0.759780 -0.000106 30.868408
v -0.724383 -0.000106 31.053795
v -0.759780 0.220171 30.868408
v -0.759780 0.220171 30.671215
v -0.759780 0.220171 29.272516
v -0.724383 0.220171 31.053795
v 0.759781 0.220171 29.072306
v 0.759781 -0.000106 30.868408
v 0.759781 -0.000106 30.671215
v 0.759780 -0.000106 29.272516
v 0.759780 0.220171 29.272516
v 0.759781 0.220171 30.671215
v 0.759781 -0.000106 29.072306
v 0.724383 -0.000106 28.908987
v -0.724383 -0.000106 28.908987
v 0.759781 0.220171 30.868408
v 0.724383 0.220171 31.053795
v 0.724383 -0.000106 31.053795
v -0.740228 4.448586 30.959103
v -0.740228 4.448586 30.761908
v -0.740228 4.448586 29.363211
v 0.740228 4.229733 29.363211
v 0.740228 4.229733 30.761908
v -0.740228 4.229733 30.959103
v -0.740228 4.229733 30.761908
v -0.740228 4.229733 29.363211
v -0.710557 4.448586 31.130663
v -0.710557 4.229733 31.130663
v 0.710557 4.448586 31.130663
v -0.740228 4.448586 29.162998
v -0.740228 4.229733 29.162998
v 0.710557 4.448586 29.013506
v 0.740228 4.448586 29.162998
v -0.710557 4.448586 29.013506
v -0.710557 4.229733 29.013506
v 0.740228 4.448586 29.363211
v 0.740228 4.448586 30.761908
v 0.710557 4.229733 29.013506
v 0.740228 4.448586 30.959103
v 0.740228 4.229733 29.162998
v 0.740228 4.229733 30.959103
v 0.710557 4.229733 31.130663
vt 0.905104 0.777131
vt 0.905104 0.784646
vt 0.898212 0.791562
vt 0.895357 0.777132
vt 0.541235 0.229143
vt 0.541223 0.218770
vt 0.663233 0.219495
vt 0.663245 0.229868
vt 0.541706 0.123326
vt 0.541809 0.112145
vt 0.663819 0.112871
vt 0.663716 0.124052
vt 0.542464 0.016788
vt 0.542495 0.005813
vt 0.664506 0.006539
vt 0.664474 0.017513
vt 0.197612 0.537124
vt 0.197612 0.413747
vt 0.205833 0.405495
vt 0.205833 0.545373
vt 0.391644 0.233226
vt 0.391546 0.222837
vt 0.399035 0.223012
vt 0.399133 0.233401
vt 0.395459 0.127474
vt 0.396291 0.116320
vt 0.403780 0.116495
vt 0.402948 0.127649
vt 0.401591 0.021109
vt 0.401844 0.010134
vt 0.409333 0.010309
vt 0.409079 0.021283
vt 0.228837 0.017074
vt 0.229090 0.006099
vt 0.248057 0.006542
vt 0.247803 0.017517
vt 0.382587 0.009684
vt 0.382334 0.020659
vt 0.222705 0.123439
vt 0.223537 0.112286
vt 0.242504 0.112729
vt 0.241672 0.123882
vt 0.377034 0.115871
vt 0.376202 0.127024
vt 0.218890 0.229192
vt 0.218792 0.218803
vt 0.237759 0.219246
vt 0.237857 0.229635
vt 0.372289 0.222388
vt 0.372387 0.232777
vt 0.013821 0.576625
vt 0.013821 0.595659
vt 0.002193 0.595661
vt 0.002193 0.576627
vt 0.013821 0.441613
vt 0.002193 0.441615
vt 0.195433 0.382306
vt 0.195686 0.393281
vt 0.176427 0.393729
vt 0.176174 0.382754
vt 0.041883 0.396857
vt 0.041629 0.385882
vt 0.022661 0.386323
vt 0.022914 0.397298
vt 0.013302 0.397522
vt 0.013049 0.386547
vt 0.189301 0.275938
vt 0.190133 0.287092
vt 0.170874 0.287539
vt 0.170042 0.276385
vt 0.036329 0.290668
vt 0.035497 0.279514
vt 0.016529 0.279955
vt 0.017361 0.291109
vt 0.007748 0.291332
vt 0.006916 0.280178
vt 0.185485 0.170182
vt 0.185387 0.180571
vt 0.166128 0.181019
vt 0.166226 0.170630
vt 0.031583 0.184147
vt 0.031682 0.173758
vt 0.012713 0.174199
vt 0.012615 0.184588
vt 0.003003 0.184812
vt 0.003101 0.174423
vt 0.013821 0.422288
vt 0.136771 0.422268
vt 0.136771 0.441594
vt 0.136771 0.576605
vt 0.136771 0.595640
vt 0.136771 0.605286
vt 0.013821 0.605305
vt 0.905397 0.777133
vt 0.905397 0.757807
vt 0.915144 0.757806
vt 0.915144 0.777131
vt 0.218062 0.594275
vt 0.218062 0.603921
vt 0.211170 0.610834
vt 0.208315 0.594273
vt 0.218062 0.420903
vt 0.341012 0.420923
vt 0.341012 0.440249
vt 0.218062 0.440229
vt 0.341012 0.575260
vt 0.218062 0.575241
vt 0.341012 0.594294
vt 0.341012 0.603940
vt 0.640369 0.540462
vt 0.640369 0.675474
vt 0.540866 0.675676
vt 0.540866 0.540665
vt 0.022702 0.010066
vt 0.022914 0.020753
vt 0.013301 0.020977
vt 0.013089 0.010289
vt 0.176215 0.006497
vt 0.176427 0.017184
vt 0.041883 0.020312
vt 0.041670 0.009625
vt 0.195474 0.006049
vt 0.195685 0.016736
vt 0.247844 0.393765
vt 0.248057 0.383078
vt 0.382587 0.386220
vt 0.382375 0.396907
vt 0.228878 0.393322
vt 0.229090 0.382635
vt 0.401631 0.397357
vt 0.401843 0.386669
vt 0.409333 0.386844
vt 0.409120 0.397532
vt 0.542469 0.392617
vt 0.542495 0.381931
vt 0.664506 0.382657
vt 0.664479 0.393342
vt 0.202963 0.005875
vt 0.203176 0.016562
vt 0.197622 0.286917
vt 0.202922 0.382132
vt 0.218062 0.413388
vt 0.341012 0.413407
vt 0.013821 0.414772
vt 0.136771 0.414753
vt 0.192975 0.170008
vt 0.192876 0.180397
vt 0.196790 0.275763
vt 0.203176 0.393107
vt 0.005599 0.406524
vt 0.144994 0.406502
vt 0.208315 0.575239
vt 0.208315 0.440227
vt 0.905397 0.603761
vt 0.905397 0.594115
vt 0.912289 0.587200
vt 0.915144 0.603759
vt 0.527571 0.652413
vt 0.527571 0.633379
vt 0.539199 0.633381
vt 0.539199 0.652415
vt 0.002193 0.422289
vt 0.148400 0.422266
vt 0.148400 0.441592
vt 0.208315 0.420902
vt 0.952531 0.712778
vt 0.952531 0.589401
vt 0.959422 0.582486
vt 0.959422 0.719695
vt 0.905397 0.784648
vt 0.912289 0.791562
vt 0.148400 0.595638
vt 0.144994 0.613533
vt 0.536910 0.112680
vt 0.414709 0.112138
vt 0.415295 0.016788
vt 0.537495 0.017331
vt 0.520402 0.744730
vt 0.520402 0.621353
vt 0.527293 0.614438
vt 0.527293 0.751647
vt 0.415323 0.005812
vt 0.537523 0.006354
vt 0.536818 0.123858
vt 0.414617 0.123316
vt 0.536397 0.229681
vt 0.414196 0.229139
vt 0.414185 0.218762
vt 0.536386 0.219304
vt 0.537500 0.393288
vt 0.415299 0.392746
vt 0.415323 0.382059
vt 0.537523 0.382601
vt 0.893551 0.378934
vt 0.893551 0.243923
vt 0.905179 0.243924
vt 0.905179 0.378936
vt 0.537106 0.336997
vt 0.414905 0.336455
vt 0.414821 0.324962
vt 0.537022 0.325504
vt 0.378809 0.340431
vt 0.378047 0.328898
vt 0.397300 0.329347
vt 0.398061 0.340880
vt 0.199397 0.062352
vt 0.198635 0.073885
vt 0.191141 0.074059
vt 0.191902 0.062527
vt 0.019135 0.066543
vt 0.018373 0.078076
vt 0.008761 0.078300
vt 0.009522 0.066767
vt 0.172649 0.062974
vt 0.171886 0.074507
vt 0.037342 0.077635
vt 0.038104 0.066102
vt 0.244278 0.337289
vt 0.243516 0.325756
vt 0.225312 0.336846
vt 0.224550 0.325313
vt 0.404792 0.329523
vt 0.405554 0.341055
vt 0.542028 0.336372
vt 0.541934 0.324889
vt 0.663944 0.325614
vt 0.664039 0.337098
vt 0.215699 0.336621
vt 0.214938 0.325089
vt 0.347904 0.610856
vt 0.893551 0.224597
vt 0.905179 0.224599
vt 0.219266 0.393098
vt 0.219478 0.382410
vt 0.213926 0.112061
vt 0.219226 0.016850
vt 0.905104 0.594113
vt 0.905104 0.603759
vt 0.895357 0.603760
vt 0.898212 0.587200
vt 0.893551 0.407614
vt 0.893551 0.397969
vt 0.905179 0.397970
vt 0.901774 0.415865
vt 0.209279 0.228967
vt 0.209181 0.218578
vt 0.213094 0.123215
vt 0.219479 0.005875
vt 0.513331 0.548169
vt 0.513331 0.683181
vt 0.413828 0.683344
vt 0.413828 0.548332
vt 0.194868 0.717385
vt 0.099381 0.718435
vt 0.099395 0.619194
vt 0.194868 0.618165
vt 0.187152 0.531918
vt 0.161056 0.535755
vt 0.161054 0.418395
vt 0.187152 0.414528
vt 0.405079 0.753996
vt 0.310091 0.751025
vt 0.310091 0.615992
vt 0.405079 0.618962
vt 0.096523 0.755404
vt 0.001426 0.753745
vt 0.001426 0.618711
vt 0.096523 0.620370
vt 0.413769 0.408966
vt 0.509383 0.401242
vt 0.509383 0.536276
vt 0.413769 0.544000
vt 0.742857 0.401330
vt 0.742857 0.536341
vt 0.643354 0.536194
vt 0.643354 0.401183
vt 0.207671 0.750958
vt 0.207671 0.615947
vt 0.307174 0.615960
vt 0.307174 0.750971
vt 0.738403 0.778111
vt 0.643288 0.778192
vt 0.643292 0.679087
vt 0.738403 0.679000
vt 0.635833 0.778367
vt 0.540803 0.778279
vt 0.540799 0.679192
vt 0.635833 0.679264
vt 0.763195 0.100592
vt 0.667786 0.101849
vt 0.667798 0.002739
vt 0.763195 0.001505
vt 0.742857 0.540460
vt 0.742857 0.675471
vt 0.643354 0.675487
vt 0.643354 0.540475
vt 0.667782 0.207217
vt 0.762898 0.207231
vt 0.762898 0.306450
vt 0.667785 0.306441
vt 0.640369 0.401394
vt 0.640369 0.536406
vt 0.540866 0.536195
vt 0.540866 0.401183
vt 0.762807 0.204237
vt 0.667786 0.204072
vt 0.667780 0.104845
vt 0.762807 0.104996
vt 0.196806 0.540529
vt 0.151276 0.545385
vt 0.151276 0.410351
vt 0.196806 0.405495
vt 0.517861 0.593556
vt 0.539055 0.593554
vt 0.539030 0.609272
vt 0.517836 0.609274
vt 0.517861 0.420155
vt 0.539055 0.420153
vt 0.539055 0.439191
vt 0.517861 0.439193
vt 0.539055 0.574225
vt 0.517861 0.574227
vt 0.286521 0.893892
vt 0.265333 0.893957
vt 0.265333 0.755145
vt 0.286521 0.755080
vt 0.819533 0.778558
vt 0.798338 0.778558
vt 0.798338 0.759227
vt 0.819533 0.759227
vt 0.798338 0.624179
vt 0.819533 0.624179
vt 0.819533 0.605140
vt 0.798338 0.605140
vt 0.798338 0.587241
vt 0.819533 0.587241
vt 0.819533 0.794327
vt 0.798338 0.794327
vt 0.287157 0.894150
vt 0.287157 0.755122
vt 0.308349 0.755082
vt 0.308349 0.894110
vt 0.517836 0.402209
vt 0.539030 0.402206
vt 0.148400 0.576604
vt 0.527571 0.806750
vt 0.527571 0.787425
vt 0.539199 0.787427
vt 0.539199 0.806752
vt 0.005599 0.613555
vt 0.942615 0.339455
vt 0.942615 0.216079
vt 0.950835 0.207826
vt 0.950835 0.347705
vt 0.527571 0.623733
vt 0.535793 0.615485
vt 0.527571 0.814266
vt 0.535793 0.822516
vt 0.893551 0.217081
vt 0.901774 0.208834
vt 0.839369 0.223186
vt 0.818312 0.223188
vt 0.818333 0.208796
vt 0.839390 0.208794
vt 0.839369 0.396586
vt 0.818312 0.396588
vt 0.818312 0.377551
vt 0.839369 0.377548
vt 0.818312 0.242517
vt 0.839369 0.242514
vt 0.096809 0.895660
vt 0.075758 0.895725
vt 0.075758 0.759563
vt 0.096809 0.759498
vt 0.820167 0.601635
vt 0.841224 0.601635
vt 0.841224 0.620966
vt 0.820167 0.620966
vt 0.841224 0.756014
vt 0.820167 0.756014
vt 0.820167 0.775053
vt 0.841224 0.775053
vt 0.841224 0.791617
vt 0.820167 0.791617
vt 0.820167 0.587201
vt 0.841224 0.587201
vt 0.054071 0.895914
vt 0.054071 0.759540
vt 0.075126 0.759501
vt 0.075126 0.895875
vt 0.839390 0.413190
vt 0.818333 0.413192
vt 0.905104 0.622793
vt 0.895357 0.622795
vt 0.211170 0.406472
vt 0.350759 0.594296
vt 0.347904 0.406494
vt 0.350759 0.420924
vt 0.350759 0.575262
vt 0.905397 0.622795
vt 0.915144 0.622794
vt 0.905104 0.757805
vt 0.895357 0.757806
vt 0.350759 0.440250
vn 0.0000 -1.0000 0.0000
vn 0.0000 0.0326 -0.9995
vn 0.0000 -0.0515 -0.9987
vn 0.0000 0.0000 -1.0000
vn 0.0000 1.0000 0.0000
vn -1.0000 0.0000 0.0000
vn 1.0000 0.0000 0.0000
vn 0.0000 -0.0326 -0.9995
vn 0.0000 0.0032 -1.0000
vn 0.0000 0.0326 0.9995
vn 0.0000 0.0000 1.0000
vn 0.0000 0.0516 0.9987
vn 0.0000 -0.0326 0.9995
vn 0.0000 -0.0033 1.0000
vn 0.0000 -0.0892 0.9960
vn 0.0000 0.0893 -0.9960
vn 0.0000 0.0180 0.9998
vn -0.0001 -1.0000 0.0000
vn 0.0000 -0.0180 -0.9998
vn 0.0000 -0.0821 0.9966
vn 0.0009 -0.0811 0.9967
vn 0.0000 0.0821 -0.9966
vn 0.0000 0.1056 -0.9944
vn 0.0000 -0.1056 0.9944
vn 0.0001 1.0000 -0.0000
vn -0.0001 1.0000 0.0000
vn -0.0017 -0.0177 -0.9998
vn -0.0007 -0.0319 -0.9995
vn -0.0009 0.0811 -0.9967
vn 0.0017 0.0177 0.9998
vn 0.0007 0.0319 0.9995
vn -0.8851 0.0558 -0.4620
vn -0.8688 -0.0596 0.4916
vn -0.8969 0.4423 0.0000
vn -0.8979 -0.4402 -0.0000
vn -0.9773 0.0000 -0.2118
vn 0.9823 0.0000 0.1876
vn 0.9773 0.0000 -0.2118
vn -0.9823 0.0000 0.1876
vn -0.9809 0.0000 -0.1947
vn 0.9854 0.0000 0.1704
vn 0.9809 0.0000 -0.1947
vn -0.9854 0.0000 0.1704
usemtl Holz4
s off
f 80/1/1 3/2/1 204/3/1 206/4/1
f 122/5/2 8/6/2 5/7/2 121/8/2
f 110/9/3 7/10/3 4/11/3 109/12/3
f 39/13/4 70/14/4 3/15/4 38/16/4
f 9/17/5 6/18/5 162/19/5 161/20/5
f 130/21/6 56/22/6 8/23/6 122/24/6
f 118/25/6 57/26/6 7/27/6 110/28/6
f 65/29/6 58/30/6 70/31/6 39/32/6
f 100/33/6 98/34/6 36/35/6 41/36/6
f 41/36/6 36/35/6 37/37/6 42/38/6
f 120/39/6 97/40/6 33/41/6 112/42/6
f 112/42/6 33/41/6 34/43/6 113/44/6
f 132/45/6 96/46/6 30/47/6 124/48/6
f 124/48/6 30/47/6 31/49/6 125/50/6
f 11/51/1 91/52/1 167/53/1 166/54/1
f 10/55/1 11/51/1 166/54/1 165/56/1
f 64/57/7 80/58/7 24/59/7 43/60/7
f 43/60/7 24/59/7 25/61/7 44/62/7
f 99/63/7 106/64/7 78/65/7 45/66/7
f 117/67/7 63/68/7 21/69/7 114/70/7
f 114/70/7 21/69/7 22/71/7 115/72/7
f 119/73/7 94/74/7 23/75/7 116/76/7
f 129/77/7 62/78/7 18/79/7 126/80/7
f 126/80/7 18/79/7 19/81/7 127/82/7
f 131/83/7 93/84/7 20/85/7 128/86/7
f 59/87/1 79/88/1 75/89/1 10/55/1
f 10/55/1 75/89/1 74/90/1 11/51/1
f 91/52/1 103/91/1 73/92/1 12/93/1
f 58/94/1 37/95/1 192/96/1 197/97/1
f 104/98/5 13/99/5 195/100/5 205/101/5
f 60/102/5 54/103/5 16/104/5 71/105/5
f 71/105/5 16/104/5 15/106/5 72/107/5
f 104/98/5 92/108/5 14/109/5 13/99/5
f 94/74/7 99/63/7 45/66/7 23/75/7
f 21/69/7 43/60/7 44/62/7 22/71/7
f 63/68/7 64/57/7 43/60/7 21/69/7
f 124/110/1 125/111/1 155/112/1 153/113/1
f 97/40/6 100/33/6 41/36/6 33/41/6
f 57/26/6 65/29/6 39/32/6 7/27/6
f 7/10/8 39/13/8 38/16/8 4/11/8
f 105/114/7 101/115/7 53/116/7 17/117/7
f 76/118/7 51/119/7 52/120/7 77/121/7
f 61/122/7 66/123/7 51/119/7 76/118/7
f 27/124/6 158/125/6 160/126/6 28/127/6
f 95/128/6 102/129/6 158/125/6 27/124/6
f 55/130/6 67/131/6 47/132/6 9/133/6
f 9/134/9 47/135/9 46/136/9 6/137/9
f 28/127/6 160/126/6 67/131/6 55/130/6
f 6/138/7 46/139/7 66/123/7 61/122/7
f 34/43/6 42/38/6 65/29/6 57/26/6
f 4/140/7 38/141/7 64/57/7 63/68/7
f 1/142/5 68/143/5 54/103/5 60/102/5
f 69/144/1 2/145/1 79/88/1 59/87/1
f 121/146/7 5/147/7 62/78/7 129/77/7
f 109/148/7 4/140/7 63/68/7 117/67/7
f 38/141/7 3/149/7 80/58/7 64/57/7
f 42/38/6 37/37/6 58/30/6 65/29/6
f 113/44/6 34/43/6 57/26/6 118/25/6
f 125/50/6 31/49/6 56/22/6 130/21/6
f 2/145/1 69/144/1 181/150/1 180/151/1
f 71/105/5 72/107/5 203/152/5 202/153/5
f 98/154/1 35/155/1 194/156/1 190/157/1
f 77/158/5 105/159/5 182/160/5 178/161/5
f 69/144/1 59/87/1 164/162/1 181/150/1
f 59/87/1 10/55/1 165/56/1 164/162/1
f 75/89/1 79/88/1 179/163/1 176/164/1
f 60/102/5 71/105/5 202/153/5 199/165/5
f 35/166/1 78/167/1 208/168/1 194/169/1
f 72/107/5 104/98/5 205/101/5 203/152/5
f 70/170/1 58/94/1 197/97/1 201/171/1
f 73/92/1 103/91/1 174/172/1 184/173/1
f 32/174/10 23/175/10 45/176/10 40/177/10
f 3/178/1 70/179/1 201/180/1 204/181/1
f 40/177/11 45/176/11 78/182/11 35/183/11
f 111/184/12 116/185/12 23/175/12 32/174/12
f 123/186/13 128/187/13 20/188/13 29/189/13
f 26/190/14 17/191/14 53/192/14 48/193/14
f 27/194/5 28/195/5 171/196/5 170/197/5
f 135/198/15 140/199/15 88/200/15 83/201/15
f 159/202/6 85/203/6 90/204/6 142/205/6
f 133/206/7 81/207/7 89/208/7 141/209/7
f 144/210/7 107/211/7 88/212/7 140/213/7
f 138/214/7 86/215/7 87/216/7 139/217/7
f 141/209/7 89/208/7 86/215/7 138/214/7
f 157/218/6 84/219/6 85/203/6 159/202/6
f 143/220/6 108/221/6 84/219/6 157/218/6
f 142/205/6 90/204/6 82/222/6 134/223/6
f 134/224/16 82/225/16 81/226/16 133/227/16
f 135/228/6 83/229/6 108/221/6 143/220/6
f 139/217/7 87/216/7 107/211/7 144/210/7
f 13/99/5 14/109/5 193/230/5 195/100/5
f 28/195/5 55/231/5 163/232/5 171/196/5
f 26/233/6 48/234/6 102/129/6 95/128/6
f 77/121/7 52/120/7 101/115/7 105/114/7
f 32/235/6 40/236/6 100/33/6 97/40/6
f 22/71/7 44/62/7 99/63/7 94/74/7
f 72/107/5 15/106/5 92/108/5 104/98/5
f 78/237/1 106/238/1 207/239/1 208/240/1
f 11/51/1 74/90/1 103/91/1 91/52/1
f 127/82/7 19/81/7 93/84/7 131/83/7
f 115/72/7 22/71/7 94/74/7 119/73/7
f 44/62/7 25/61/7 106/64/7 99/63/7
f 26/241/5 95/242/5 169/243/5 172/244/5
f 123/245/6 29/246/6 96/46/6 132/45/6
f 111/247/6 32/235/6 97/40/6 120/39/6
f 40/236/6 35/248/6 98/34/6 100/33/6
f 29/246/6 111/247/6 120/39/6 96/46/6
f 19/81/7 115/72/7 119/73/7 93/84/7
f 29/189/17 20/188/17 116/185/17 111/184/17
f 31/49/6 113/44/6 118/25/6 56/22/6
f 5/147/7 109/148/7 117/67/7 62/78/7
f 93/84/7 119/73/7 116/76/7 20/85/7
f 18/79/7 114/70/7 115/72/7 19/81/7
f 62/78/7 117/67/7 114/70/7 18/79/7
f 112/249/18 113/250/18 152/251/18 151/252/18
f 96/46/6 120/39/6 112/42/6 30/47/6
f 56/22/6 118/25/6 110/28/6 8/23/6
f 8/6/19 110/9/19 109/12/19 5/7/19
f 83/229/6 123/245/6 132/45/6 108/221/6
f 87/216/7 127/82/7 131/83/7 107/211/7
f 83/201/20 88/200/20 128/187/20 123/186/20
f 85/203/6 125/50/6 130/21/6 90/204/6
f 81/207/7 121/146/7 129/77/7 89/208/7
f 107/211/7 131/83/7 128/86/7 88/212/7
f 86/215/7 126/80/7 127/82/7 87/216/7
f 89/208/7 129/77/7 126/80/7 86/215/7
f 125/253/21 85/254/21 156/255/21 155/256/21
f 108/221/6 132/45/6 124/48/6 84/219/6
f 90/204/6 130/21/6 122/24/6 82/222/6
f 82/225/22 122/5/22 121/8/22 81/226/22
f 52/120/7 139/217/7 144/210/7 101/115/7
f 48/234/6 135/228/6 143/220/6 102/129/6
f 47/135/23 134/224/23 133/227/23 46/136/23
f 67/131/6 142/205/6 134/223/6 47/132/6
f 102/129/6 143/220/6 157/218/6 158/125/6
f 49/257/6 136/258/6 137/259/6 50/260/6
f 66/123/7 141/209/7 138/214/7 51/119/7
f 51/119/7 138/214/7 139/217/7 52/120/7
f 101/115/7 144/210/7 140/213/7 53/116/7
f 46/139/7 133/206/7 141/209/7 66/123/7
f 160/126/6 159/202/6 142/205/6 67/131/6
f 48/193/24 53/192/24 140/199/24 135/198/24
f 147/261/6 149/262/6 150/263/6 148/264/6
f 145/265/6 151/266/6 152/267/6 146/268/6
f 154/269/6 153/270/6 155/271/6 156/272/6
f 34/273/25 33/274/25 147/275/25 148/276/25
f 85/277/26 84/278/26 154/279/26 156/280/26
f 30/281/27 112/282/27 151/283/27 145/284/27
f 33/285/28 41/286/28 149/287/28 147/288/28
f 84/289/29 124/290/29 153/291/29 154/292/29
f 41/293/1 42/294/1 150/295/1 149/296/1
f 113/297/30 31/298/30 146/299/30 152/300/30
f 31/301/25 30/302/25 145/303/25 146/304/25
f 42/305/31 34/306/31 148/307/31 150/308/31
f 136/258/32 49/257/32 158/309/32 157/310/32
f 50/260/33 137/259/33 159/311/33 160/312/33
f 49/257/34 50/260/34 160/312/34 158/309/34
f 137/259/35 136/258/35 157/310/35 159/311/35
f 164/313/36 163/314/36 161/315/36 181/316/36
f 167/317/6 169/318/6 170/319/6 166/320/6
f 166/320/6 170/319/6 171/321/6 165/322/6
f 165/322/6 171/321/6 163/314/6 164/313/6
f 181/323/4 161/324/4 162/325/4 180/326/4
f 179/327/7 173/328/7 177/329/7 176/330/7
f 176/330/7 177/329/7 178/331/7 175/332/7
f 174/333/37 182/334/37 183/335/37 184/336/37
f 180/337/38 162/338/38 173/328/38 179/327/38
f 168/339/11 184/340/11 183/341/11 172/342/11
f 175/332/7 178/331/7 182/334/7 174/333/7
f 168/343/39 172/344/39 169/318/39 167/317/39
f 103/91/1 74/90/1 175/345/1 174/172/1
f 61/346/5 76/347/5 177/348/5 173/349/5
f 91/52/1 12/93/1 168/350/1 167/53/1
f 17/351/5 26/352/5 172/353/5 183/354/5
f 12/93/1 73/92/1 184/173/1 168/350/1
f 74/90/1 75/89/1 176/164/1 175/345/1
f 105/159/5 17/355/5 183/356/5 182/160/5
f 6/357/5 61/346/5 173/349/5 162/358/5
f 76/347/5 77/158/5 178/161/5 177/348/5
f 79/88/1 2/145/1 180/151/1 179/163/1
f 55/231/5 9/359/5 161/360/5 163/232/5
f 95/242/5 27/194/5 170/197/5 169/243/5
f 197/361/40 196/362/40 200/363/40 201/364/40
f 190/365/6 185/366/6 186/367/6 191/368/6
f 191/368/6 186/367/6 187/369/6 192/370/6
f 192/370/6 187/369/6 196/362/6 197/361/6
f 201/371/4 200/372/4 198/373/4 204/374/4
f 206/375/7 199/376/7 202/377/7 188/378/7
f 188/378/7 202/377/7 203/379/7 189/380/7
f 207/381/41 205/382/41 195/383/41 208/384/41
f 204/385/42 198/386/42 199/376/42 206/375/42
f 194/387/11 208/388/11 195/389/11 193/390/11
f 189/380/7 203/379/7 205/382/7 207/381/7
f 194/391/43 193/392/43 185/366/43 190/365/43
f 106/238/1 25/393/1 189/394/1 207/239/1
f 1/142/5 60/102/5 199/165/5 198/395/5
f 14/109/5 92/108/5 185/396/5 193/230/5
f 54/103/5 68/143/5 200/397/5 196/398/5
f 92/108/5 15/106/5 186/399/5 185/396/5
f 36/400/1 98/154/1 190/157/1 191/401/1
f 68/143/5 1/142/5 198/395/5 200/397/5
f 25/393/1 24/402/1 188/403/1 189/394/1
f 24/402/1 80/1/1 206/4/1 188/403/1
f 15/106/5 16/104/5 187/404/5 186/399/5
f 37/95/1 36/400/1 191/401/1 192/96/1
f 16/104/5 54/103/5 196/398/5 187/404/5
